<svg width="4500" height="1500" viewBox="0 0 4500 1500" fill="none" xmlns="http://www.w3.org/2000/svg">
<circle cx="902.534" cy="984.524" r="15.0765" fill="black"/>
<circle cx="964.514" cy="966.097" r="20.102" fill="black"/>
<circle cx="1044.92" cy="912.492" r="33.5034" fill="black"/>
<circle cx="1121.98" cy="811.982" r="46.9047" fill="black"/>
<circle cx="1152.13" cy="671.267" r="56.9557" fill="black"/>
<circle cx="1120.3" cy="535.579" r="48.5799" fill="black"/>
<circle cx="1046.6" cy="435.068" r="35.1785" fill="black"/>
<circle cx="964.514" cy="376.438" r="20.102" fill="black"/>
<circle cx="900.858" cy="359.686" r="13.4013" fill="black"/>
<circle cx="580.9" cy="837.109" r="15.0765" transform="rotate(90 580.9 837.109)" fill="black"/>
<circle cx="599.328" cy="899.09" r="20.102" transform="rotate(90 599.328 899.09)" fill="black"/>
<circle cx="652.932" cy="979.498" r="33.5034" transform="rotate(90 652.932 979.498)" fill="black"/>
<circle cx="753.443" cy="1056.56" r="46.9047" transform="rotate(90 753.443 1056.56)" fill="black"/>
<circle cx="894.156" cy="1086.71" r="56.9557" transform="rotate(90 894.156 1086.71)" fill="black"/>
<circle cx="1029.85" cy="1054.88" r="48.5799" transform="rotate(90 1029.85 1054.88)" fill="black"/>
<circle cx="1130.35" cy="981.174" r="35.1785" transform="rotate(90 1130.35 981.174)" fill="black"/>
<circle cx="1188.99" cy="899.09" r="20.102" transform="rotate(90 1188.99 899.09)" fill="black"/>
<circle cx="1205.74" cy="835.434" r="13.4013" transform="rotate(90 1205.74 835.434)" fill="black"/>
<circle cx="728.314" cy="515.477" r="15.0765" transform="rotate(-180 728.314 515.477)" fill="black"/>
<circle cx="666.333" cy="533.904" r="20.102" transform="rotate(-180 666.333 533.904)" fill="black"/>
<circle cx="585.926" cy="587.509" r="33.5034" transform="rotate(-180 585.926 587.509)" fill="black"/>
<circle cx="508.869" cy="688.019" r="46.9047" transform="rotate(-180 508.869 688.019)" fill="black"/>
<circle cx="478.714" cy="828.734" r="56.9557" transform="rotate(-180 478.714 828.734)" fill="black"/>
<circle cx="510.543" cy="964.422" r="48.5799" transform="rotate(-180 510.543 964.422)" fill="black"/>
<circle cx="584.251" cy="1064.93" r="35.1785" transform="rotate(-180 584.251 1064.93)" fill="black"/>
<circle cx="666.333" cy="1123.56" r="20.102" transform="rotate(-180 666.333 1123.56)" fill="black"/>
<circle cx="729.989" cy="1140.31" r="13.4013" transform="rotate(-180 729.989 1140.31)" fill="black"/>
<circle cx="1049.95" cy="662.892" r="15.0765" transform="rotate(-90 1049.95 662.892)" fill="black"/>
<circle cx="1031.52" cy="600.911" r="20.102" transform="rotate(-90 1031.52 600.911)" fill="black"/>
<circle cx="977.915" cy="520.503" r="33.5034" transform="rotate(-90 977.915 520.503)" fill="black"/>
<circle cx="877.405" cy="443.445" r="46.9047" transform="rotate(-90 877.405 443.445)" fill="black"/>
<circle cx="736.692" cy="413.292" r="56.9557" transform="rotate(-90 736.692 413.292)" fill="black"/>
<circle cx="601.002" cy="445.12" r="48.5799" transform="rotate(-90 601.002 445.12)" fill="black"/>
<circle cx="500.493" cy="518.827" r="35.1785" transform="rotate(-90 500.493 518.827)" fill="black"/>
<circle cx="441.862" cy="600.911" r="20.102" transform="rotate(-90 441.862 600.911)" fill="black"/>
<circle cx="425.11" cy="664.567" r="13.4013" transform="rotate(-90 425.11 664.567)" fill="black"/>
<path d="M1440.15 642.305H1696.86V693.735H1594.44V950H1543.01V693.735H1440.15V642.305ZM1990.58 642.305V693.735H1836.74V770.881H1990.58V821.868H1836.74V898.57H1990.58V950H1785.75V642.305H1990.58ZM2233.29 642.305C2254.57 642.305 2274.38 646.295 2292.7 654.276C2311.32 662.256 2327.73 673.34 2341.92 687.528L2305.56 723.884C2285.46 703.785 2261.37 693.735 2233.29 693.735C2219.1 693.735 2205.8 696.395 2193.39 701.716C2180.97 707.036 2170.04 714.426 2160.58 723.884C2151.42 733.047 2144.03 743.835 2138.41 756.25C2133.09 768.664 2130.43 781.965 2130.43 796.152C2130.43 810.34 2133.09 823.641 2138.41 836.055C2144.03 848.469 2151.42 859.406 2160.58 868.864C2169.74 878.027 2180.53 885.269 2192.95 890.589C2205.66 895.91 2219.1 898.57 2233.29 898.57C2261.08 898.57 2285.17 888.668 2305.56 868.864L2341.92 904.777C2327.73 918.964 2311.32 930.049 2292.7 938.029C2274.38 946.01 2254.57 950 2233.29 950C2212.01 950 2192.06 946.01 2173.44 938.029C2154.82 929.753 2138.41 918.669 2124.22 904.777C2110.33 890.885 2099.25 874.628 2090.97 856.007C2082.99 837.385 2079 817.434 2079 796.152C2079 775.462 2082.99 755.806 2090.97 737.185C2099.25 718.268 2110.33 701.864 2124.22 687.972C2138.41 673.784 2154.82 662.7 2173.44 654.719C2192.06 646.443 2212.01 642.305 2233.29 642.305ZM2430.79 642.305H2481.78V770.437H2635.63V642.305H2687.06V950H2635.63V821.868H2481.78V950H2430.79V642.305ZM3198.73 642.305C3241.29 642.305 3277.5 657.379 3307.35 687.528C3337.79 717.677 3353.02 753.885 3353.02 796.152C3353.02 839.011 3337.79 875.219 3307.35 904.777C3277.5 934.926 3241.29 950 3198.73 950C3156.16 950 3119.95 934.926 3090.1 904.777C3059.95 874.924 3044.88 838.715 3044.88 796.152C3044.88 753.885 3059.95 717.677 3090.1 687.528C3119.66 657.379 3155.87 642.305 3198.73 642.305ZM3198.73 693.735C3170.65 693.735 3146.41 703.785 3126.01 723.884C3106.21 743.983 3096.31 768.073 3096.31 796.152C3096.31 824.232 3106.21 848.47 3126.01 868.864C3146.41 888.668 3170.65 898.57 3198.73 898.57C3226.81 898.57 3250.89 888.668 3270.99 868.864C3291.09 848.47 3301.14 824.232 3301.14 796.152C3301.14 768.073 3291.09 743.983 3270.99 723.884C3250.89 703.785 3226.81 693.735 3198.73 693.735ZM3595.99 642.305C3617.27 642.305 3637.07 646.295 3655.4 654.276C3674.02 662.256 3690.43 673.34 3704.61 687.528L3668.26 723.884C3648.16 703.785 3624.07 693.735 3595.99 693.735C3581.8 693.735 3568.5 696.395 3556.09 701.716C3543.67 707.036 3532.74 714.426 3523.28 723.884C3514.11 733.047 3506.72 743.835 3501.11 756.25C3495.79 768.664 3493.13 781.965 3493.13 796.152C3493.13 810.34 3495.79 823.641 3501.11 836.055C3506.72 848.469 3514.11 859.406 3523.28 868.864C3532.44 878.027 3543.23 885.269 3555.64 890.589C3568.35 895.91 3581.8 898.57 3595.99 898.57C3623.77 898.57 3647.86 888.668 3668.26 868.864L3704.61 904.777C3690.43 918.964 3674.02 930.049 3655.4 938.029C3637.07 946.01 3617.27 950 3595.99 950C3574.71 950 3554.76 946.01 3536.13 938.029C3517.51 929.753 3501.11 918.669 3486.92 904.777C3473.03 890.885 3461.94 874.628 3453.67 856.007C3445.69 837.385 3441.7 817.434 3441.7 796.152C3441.7 775.462 3445.69 755.806 3453.67 737.185C3461.94 718.268 3473.03 701.864 3486.92 687.972C3501.11 673.784 3517.51 662.7 3536.13 654.719C3554.76 646.443 3574.71 642.305 3595.99 642.305ZM3883.05 821.868C3858.22 821.868 3837.09 813.148 3819.65 795.709C3802.21 778.27 3793.49 756.989 3793.49 731.865C3793.49 707.332 3802.21 686.346 3819.65 668.907C3836.79 651.172 3857.92 642.305 3883.05 642.305H4049.75V693.735H3883.05C3877.73 693.735 3872.7 694.77 3867.97 696.839C3863.24 698.612 3859.11 701.272 3855.56 704.819C3852.01 708.366 3849.2 712.504 3847.14 717.234C3845.36 721.963 3844.48 726.84 3844.48 731.865C3844.48 742.505 3848.17 751.668 3855.56 759.353C3862.95 767.038 3872.11 770.881 3883.05 770.881H3959.75C3984.58 770.881 4005.71 779.6 4023.15 797.039C4040.89 814.478 4049.75 835.612 4049.75 860.44C4049.75 884.973 4040.89 906.107 4023.15 923.841C4005.71 941.28 3984.58 950 3959.75 950H3793.49V898.57H3959.75C3965.07 898.57 3970.1 897.683 3974.82 895.91C3979.55 893.84 3983.69 891.18 3987.24 887.929C3990.79 884.382 3993.45 880.244 3995.22 875.515C3997.29 870.786 3998.32 865.761 3998.32 860.44C3998.32 850.095 3994.48 841.08 3986.8 833.395C3979.41 825.71 3970.39 821.868 3959.75 821.868H3883.05Z" fill="black"/>
<path fill-rule="evenodd" clip-rule="evenodd" d="M2745.12 645.15H2846.63C2867.43 645.15 2887.06 649.252 2905.52 657.455C2923.98 665.365 2940.09 676.351 2953.86 690.413C2967.92 704.182 2978.9 720.295 2986.82 738.752C2995.02 757.209 2999.12 776.837 2999.12 797.637C2999.12 818.438 2995.02 838.066 2986.82 856.523C2978.9 874.98 2968.06 891.239 2954.29 905.301C2940.53 919.07 2924.26 930.057 2905.52 938.259C2887.06 946.169 2867.43 950.125 2846.63 950.125H2745.12V899.149V696.126V645.15ZM2886.18 891.239C2873.88 896.512 2860.69 899.149 2846.63 899.149H2795.66V696.125H2846.63C2860.4 696.125 2873.44 698.762 2885.74 704.035C2898.05 709.308 2908.89 716.633 2918.27 726.007C2927.64 735.382 2934.96 746.221 2940.24 758.526C2945.51 770.831 2948.15 783.868 2948.15 797.636C2948.15 811.406 2945.51 824.443 2940.24 836.747C2934.96 849.051 2927.64 859.891 2918.27 869.266C2909.18 878.641 2898.49 885.965 2886.18 891.239ZM2795.66 696.125V899.148H2745.12V696.125H2795.66Z" fill="black"/>
</svg>
